<?xml version="1.0" encoding="utf-8"?>
<svg xmlns="http://www.w3.org/2000/svg"
	xmlns:xlink="http://www.w3.org/1999/xlink"
	width="36px" height="36px" viewBox="0 0 36 36">
<path fillRule="evenodd" d="M 36 25.52C 36 29.8 32.52 33.28 28.23 33.28 28.23 33.28 24.11 33.28 24.11 33.28 22.54 34.66 20.5 35.5 18.25 35.5 18.25 35.5 9.38 35.5 9.38 35.5 4.47 35.5 0.5 31.53 0.5 26.63 0.5 23.72 1.91 21.17 4.07 19.55 3.24 17.68 2.72 15.58 2.72 13.31 2.72 5.96 7.69 0 13.81 0 16.62 0 19.17 1.26 21.12 3.32 22.28 2.63 23.55 2.22 24.91 2.22 29.81 2.22 33.78 7.19 33.78 13.31 33.78 15.41 33.29 17.35 32.48 19.02 34.6 20.41 36 22.8 36 25.52ZM 13.81 4.44C 10.14 4.44 7.16 8.41 7.16 13.31 7.16 18.21 10.14 22.19 13.81 22.19 17.49 22.19 20.47 18.21 20.47 13.31 20.47 8.41 17.49 4.44 13.81 4.44ZM 13.81 26.63C 11 26.63 8.46 25.33 6.51 23.26 5.56 24.08 4.94 25.27 4.94 26.63 4.94 29.08 6.92 31.06 9.38 31.06 9.38 31.06 18.25 31.06 18.25 31.06 20.7 31.06 22.69 29.08 22.69 26.63 22.69 25.27 22.07 24.08 21.12 23.26 19.16 25.33 16.62 26.63 13.81 26.63ZM 24.91 6.66C 24.44 6.66 24 6.8 23.58 7 24.43 8.88 24.91 11.03 24.91 13.31 24.91 14.91 24.64 16.43 24.19 17.84 24.2 17.81 24.22 17.78 24.23 17.75 24.23 17.75 28.19 17.75 28.19 17.75 28.9 16.57 29.34 15.03 29.34 13.31 29.34 9.64 27.36 6.66 24.91 6.66ZM 28.23 22.19C 28.23 22.19 25.9 22.19 25.9 22.19 26.67 23.49 27.13 25 27.13 26.63 27.13 27.39 27.02 28.13 26.83 28.84 26.83 28.84 28.23 28.84 28.23 28.84 30.07 28.84 31.56 27.35 31.56 25.52 31.56 23.68 30.07 22.19 28.23 22.19Z" fill="rgb(45,203,113)"/></svg>