<?xml version="1.0" encoding="utf-8"?>
<svg xmlns="http://www.w3.org/2000/svg"
	xmlns:xlink="http://www.w3.org/1999/xlink"
	width="17px" height="23px" viewBox="0 0 17 23">
<path fillRule="evenodd" d="M 14.99 10.97C 14.99 10.97 4.99 10.97 4.99 10.97 4.99 10.97 4.99 4.97 4.99 4.97 4.99 4.97 16.04 4.97 16.04 4.97 16.04 4.97 16.04 0.95 16.04 0.95 16.04 0.95 0.96 0.95 0.96 0.95 0.96 0.95 0.96 23 0.96 23 0.96 23 4.99 23 4.99 23 4.99 23 4.99 15.08 4.99 15.08 4.99 15.08 14.99 15.08 14.99 15.08 14.99 15.08 14.99 10.97 14.99 10.97Z" fill="rgb(255,255,255)"/></svg>