<?xml version="1.0" encoding="utf-8"?>
<svg xmlns="http://www.w3.org/2000/svg"
	xmlns:xlink="http://www.w3.org/1999/xlink"
	width="31px" height="45px" viewBox="0 0 31 45">
<path fillRule="evenodd" d="M 30.22 12.55C 30.22 12.55 16.59 36.57 16.59 36.57 16.59 36.57 1.01 44.94 1.01 44.94 1.01 44.94 0.06 26.86 0.06 26.86 0.06 26.86 13.69 2.84 13.69 2.84 15.2 0.19 18.53-0.72 21.14 0.81 21.14 0.81 28.22 4.97 28.22 4.97 30.83 6.5 31.72 9.9 30.22 12.55ZM 6.38 35.62C 6.38 35.62 13.23 31.4 13.23 31.4 13.23 31.4 20.04 19.38 20.04 19.38 20.04 19.38 12.96 15.22 12.96 15.22 12.96 15.22 6.14 27.23 6.14 27.23 6.14 27.23 6.38 35.62 6.38 35.62ZM 23.13 8.39C 23.13 8.39 20.77 7 20.77 7 19.47 6.24 17.8 6.69 17.05 8.02 17.05 8.02 15.69 10.42 15.69 10.42 15.69 10.42 22.77 14.58 22.77 14.58 22.77 14.58 24.13 12.18 24.13 12.18 24.89 10.85 24.44 9.15 23.13 8.39Z" fill="rgb(45,203,113)"/></svg>