<?xml version="1.0" encoding="utf-8"?>
<svg xmlns="http://www.w3.org/2000/svg"
	xmlns:xlink="http://www.w3.org/1999/xlink"
	width="41px" height="41px" viewBox="0 0 41 41">
<path fillRule="evenodd" d="M 20.25 41C 9.07 41 0 31.93 0 20.75 0 9.57 9.07 0.5 20.25 0.5 31.43 0.5 40.5 9.57 40.5 20.75 40.5 31.93 31.43 41 20.25 41ZM 5.82 20.42C 7.24 20.26 10.18 20.04 11.57 20.75 13.98 21.97 16.59 24.94 16.59 24.94 16.59 24.94 10.82 31.64 10.82 31.64 13.36 33.84 16.63 35.21 20.25 35.21 28.24 35.21 34.71 28.74 34.71 20.75 34.71 19.38 34.46 18.08 34.11 16.83 32.93 18.2 30.55 19.96 30.55 19.96 28.52 19.74 29.5 22.24 29.5 22.24 30.36 27.79 27.42 28.47 27.42 28.47 23.41 32.59 20.25 23.64 20.25 23.64 19.51 18.66 19.08 17.07 19.08 17.07 13.95 13.86 19.01 12.7 20.09 12.51 20.11 12.51 20.11 12.51 20.12 12.51 20.39 12.47 20.32 12.47 20.09 12.51 18.64 12.71 18.92 11.83 18.04 10.23 17.15 8.62 16.07 10.5 15.95 10.23 15.84 9.96 15.33 13.18 13.87 13.65 12.41 14.12 12.83 10.23 12.83 10.23 10.01 14.55 9.09 13.45 8.79 12.03 7.01 14.38 5.89 17.26 5.82 20.42Z" fill="rgb(45,203,113)"/></svg>