<?xml version="1.0" encoding="utf-8"?>
<svg xmlns="http://www.w3.org/2000/svg"
	xmlns:xlink="http://www.w3.org/1999/xlink"
	width="37px" height="36px" viewBox="0 0 37 36">
<path fillRule="evenodd" d="M 36.01 20.33C 36.01 20.33 27.03 29.27 27.03 29.27 27.03 29.27 25.54 30.76 25.54 30.76 19.75 36.51 10.37 36.51 4.59 30.76-1.2 25-1.2 15.66 4.59 9.9 4.59 9.9 6.09 8.41 6.09 8.41 6.09 8.41 9.08 11.39 9.08 11.39 9.08 11.39 7.58 12.88 7.58 12.88 3.45 16.99 3.45 23.66 7.58 27.78 11.71 31.89 18.41 31.89 22.54 27.78 22.54 27.78 24.04 26.29 24.04 26.29 24.04 26.29 24.04 26.29 24.04 26.29 24.04 26.29 33.02 17.35 33.02 17.35 33.85 16.53 35.19 16.53 36.01 17.35 36.84 18.17 36.84 19.51 36.01 20.33ZM 21.05 23.31C 21.05 23.31 21.05 23.31 21.05 23.31 18.57 25.78 14.55 25.78 12.07 23.31 9.59 20.84 9.59 16.84 12.07 14.37 12.07 14.37 15.06 11.39 15.06 11.39 15.89 10.57 17.23 10.57 18.06 11.39 18.88 12.21 18.88 13.55 18.06 14.37 18.06 14.37 15.06 17.35 15.06 17.35 14.24 18.17 14.24 19.51 15.06 20.33 15.89 21.15 17.23 21.15 18.06 20.33 18.06 20.33 22.54 15.86 22.54 15.86 25.02 13.39 25.02 9.39 22.54 6.92 20.07 4.45 16.05 4.45 13.57 6.92 13.57 6.92 9.08 11.39 9.08 11.39 9.08 11.39 6.09 8.41 6.09 8.41 6.09 8.41 10.57 3.94 10.57 3.94 14.71-0.17 21.41-0.17 25.54 3.94 29.67 8.06 29.67 14.73 25.54 18.84 25.54 18.84 21.05 23.31 21.05 23.31Z" fill="rgb(45,203,113)"/></svg>