<?xml version="1.0" encoding="utf-8"?>
<svg xmlns="http://www.w3.org/2000/svg"
	xmlns:xlink="http://www.w3.org/1999/xlink"
	width="18px" height="19px" viewBox="0 0 18 19">
<path fillRule="evenodd" d="M 17.71 11.25C 17.6 11.83 17.42 12.39 17.19 12.93 16.97 13.46 16.69 13.97 16.37 14.45 16.05 14.93 15.68 15.37 15.28 15.78 14.87 16.18 14.43 16.55 13.95 16.87 13.47 17.19 12.96 17.47 12.43 17.69 11.89 17.92 11.33 18.1 10.75 18.21 10.16 18.34 9.56 18.4 8.95 18.4 8.34 18.4 7.74 18.34 7.15 18.21 6.57 18.1 6.01 17.92 5.47 17.69 4.94 17.47 4.43 17.19 3.95 16.87 3.47 16.55 3.03 16.18 2.62 15.78 2.22 15.37 1.85 14.93 1.53 14.45 1.21 13.97 0.93 13.46 0.71 12.93 0.48 12.39 0.3 11.83 0.19 11.25 0.07 10.66 0 10.06 0 9.45 0 8.84 0.07 8.24 0.19 7.65 0.3 7.07 0.48 6.51 0.71 5.97 0.93 5.44 1.21 4.93 1.53 4.45 1.85 3.97 2.22 3.53 2.62 3.12 3.03 2.72 3.47 2.35 3.95 2.03 4.43 1.71 4.94 1.43 5.47 1.21 6.01 0.98 6.57 0.8 7.15 0.69 7.74 0.57 8.34 0.5 8.95 0.5 9.56 0.5 10.16 0.57 10.75 0.69 11.33 0.8 11.89 0.98 12.43 1.21 12.96 1.43 13.47 1.71 13.95 2.03 14.43 2.35 14.87 2.72 15.28 3.12 15.68 3.53 16.05 3.97 16.37 4.45 16.69 4.93 16.97 5.44 17.19 5.97 17.42 6.51 17.6 7.07 17.71 7.65 17.84 8.24 17.9 8.84 17.9 9.45 17.9 10.06 17.84 10.66 17.71 11.25ZM 13.19 15.62C 13.57 15.36 13.92 15.07 14.25 14.74 14.58 14.41 14.89 14.03 15.16 13.64 15.43 13.24 15.66 12.81 15.85 12.37 16.04 11.91 16.19 11.44 16.29 10.96 16.31 10.85 16.32 10.73 16.34 10.62 16.28 10.6 16.19 10.57 16.1 10.55 16.08 10.55 16.07 10.54 16.05 10.54 15.84 10.49 15.55 10.42 15.21 10.37 15.21 10.37 15.2 10.37 15.2 10.37 14.32 10.22 13.08 10.12 11.73 10.34 12.64 12.84 13.07 14.93 13.19 15.62ZM 6.04 16.35C 6.49 16.54 6.96 16.69 7.44 16.79 7.93 16.89 8.44 16.94 8.95 16.94 9.46 16.94 9.97 16.89 10.46 16.79 10.94 16.69 11.41 16.54 11.86 16.35 11.88 16.34 11.89 16.34 11.91 16.33 11.76 15.5 11.3 13.29 10.3 10.69 10.28 10.69 10.27 10.7 10.25 10.7 9.79 10.86 9.38 11.04 8.98 11.23 8.93 11.25 8.87 11.28 8.81 11.3 8.44 11.48 8.1 11.67 7.79 11.87 7.73 11.91 7.67 11.94 7.61 11.98 7.31 12.18 7.02 12.38 6.77 12.58 6.73 12.61 6.69 12.64 6.65 12.67 6.39 12.88 6.14 13.09 5.93 13.3 5.93 13.3 5.93 13.3 5.93 13.3 5.71 13.51 5.52 13.71 5.35 13.9 5.33 13.93 5.3 13.96 5.28 13.99 5.12 14.17 4.99 14.34 4.87 14.5 4.85 14.53 4.83 14.55 4.81 14.58 4.7 14.73 4.6 14.87 4.53 14.99 4.52 15.01 4.51 15.03 4.49 15.05 4.42 15.16 4.36 15.26 4.33 15.33 4.33 15.33 4.33 15.33 4.33 15.33 4.47 15.45 4.61 15.56 4.76 15.66 5.16 15.93 5.59 16.16 6.04 16.35ZM 1.47 9.21C 1.47 9.29 1.46 9.37 1.46 9.45 1.46 9.96 1.51 10.47 1.61 10.96 1.71 11.44 1.86 11.91 2.05 12.37 2.24 12.81 2.47 13.24 2.74 13.64 2.92 13.91 3.15 14.15 3.36 14.39 3.36 14.39 3.36 14.39 3.36 14.39 3.41 14.31 3.49 14.19 3.58 14.06 3.6 14.04 3.61 14.02 3.62 14 3.72 13.86 3.83 13.71 3.96 13.54 3.99 13.51 4.01 13.47 4.04 13.44 4.18 13.26 4.34 13.07 4.52 12.87 4.54 12.84 4.57 12.81 4.6 12.78 4.79 12.56 5 12.34 5.24 12.11 5.24 12.11 5.24 12.11 5.24 12.11 5.47 11.89 5.73 11.67 6 11.44 6.04 11.41 6.08 11.38 6.12 11.34 6.39 11.13 6.68 10.92 6.98 10.73 7.04 10.69 7.09 10.65 7.15 10.61 7.46 10.42 7.79 10.23 8.14 10.06 8.19 10.03 8.25 10.01 8.3 9.98 8.68 9.81 9.06 9.64 9.48 9.51 9.58 9.48 9.68 9.45 9.77 9.43 9.58 8.99 9.38 8.55 9.16 8.12 6.07 9.04 3.08 9.19 1.88 9.21 1.88 9.21 1.88 9.21 1.88 9.21 1.71 9.21 1.57 9.21 1.47 9.21ZM 5.79 2.67C 5.43 2.84 5.09 3.02 4.76 3.24 4.37 3.51 4 3.82 3.66 4.15 3.32 4.49 3.01 4.87 2.74 5.26 2.47 5.66 2.24 6.09 2.05 6.54 1.87 6.97 1.73 7.42 1.63 7.88 1.71 7.88 1.82 7.87 1.96 7.87 1.96 7.87 1.96 7.87 1.96 7.87 2.24 7.87 2.62 7.85 3.08 7.82 3.09 7.82 3.09 7.82 3.09 7.82 4.25 7.74 5.95 7.56 7.82 7.12 7.82 7.12 7.82 7.12 7.82 7.12 7.82 7.12 7.82 7.12 7.82 7.12 8.06 7.06 8.29 7 8.53 6.94 7.36 4.87 6.13 3.14 5.79 2.67ZM 13.14 3.24C 12.74 2.97 12.31 2.74 11.86 2.55 11.41 2.36 10.94 2.21 10.46 2.11 9.97 2.01 9.46 1.96 8.95 1.96 8.44 1.96 7.93 2.01 7.44 2.11 7.38 2.13 7.32 2.15 7.25 2.16 7.62 2.66 8.86 4.37 10 6.47 10 6.47 10 6.47 10 6.47 10.3 6.36 10.58 6.24 10.84 6.12 10.84 6.12 10.85 6.11 10.85 6.11 12.69 5.25 13.6 4.22 13.89 3.86 13.64 3.64 13.4 3.42 13.14 3.24ZM 16.29 7.94C 16.19 7.46 16.04 6.99 15.85 6.54 15.66 6.09 15.43 5.66 15.16 5.26 15.03 5.08 14.88 4.92 14.73 4.75 14.43 5.13 13.42 6.23 11.51 7.19 11.49 7.2 11.47 7.21 11.45 7.22 11.18 7.36 10.89 7.48 10.59 7.61 10.77 7.98 10.94 8.35 11.1 8.73 11.16 8.86 11.21 8.99 11.26 9.13 11.53 9.09 11.8 9.07 12.07 9.05 12.12 9.05 12.16 9.05 12.21 9.04 12.44 9.03 12.66 9.02 12.88 9.02 12.92 9.02 12.96 9.02 13 9.02 13.25 9.02 13.5 9.03 13.74 9.04 13.76 9.04 13.77 9.04 13.79 9.04 14.01 9.05 14.22 9.06 14.42 9.08 14.46 9.08 14.51 9.08 14.56 9.09 14.75 9.11 14.94 9.12 15.11 9.14 15.12 9.14 15.14 9.15 15.15 9.15 15.33 9.17 15.5 9.19 15.66 9.21 15.7 9.22 15.73 9.22 15.77 9.23 15.88 9.25 15.99 9.26 16.08 9.28 16.11 9.28 16.14 9.29 16.16 9.29 16.27 9.31 16.36 9.33 16.43 9.34 16.43 9.34 16.43 9.34 16.43 9.34 16.43 8.87 16.38 8.4 16.29 7.94Z" fill="rgb(255,255,255)"/></svg>