<?xml version="1.0" encoding="utf-8"?>
<svg xmlns="http://www.w3.org/2000/svg"
	xmlns:xlink="http://www.w3.org/1999/xlink"
	width="20px" height="20px" viewBox="0 0 20 20">
<path fillRule="evenodd" d="M 20 10C 20 11.81 19.55 13.49 18.66 15.02 17.76 16.55 16.55 17.76 15.02 18.66 13.49 19.55 11.81 20 10 20 9.04 20 8.09 19.86 7.16 19.58 7.67 18.78 8.01 18.06 8.18 17.45 8.26 17.15 8.49 16.24 8.88 14.7 9.05 15.04 9.37 15.33 9.83 15.58 10.29 15.83 10.79 15.95 11.32 15.95 12.37 15.95 13.3 15.65 14.13 15.06 14.95 14.46 15.59 13.65 16.04 12.6 16.49 11.56 16.72 10.39 16.72 9.09 16.72 8.1 16.46 7.17 15.94 6.3 15.43 5.43 14.68 4.73 13.7 4.18 12.72 3.63 11.61 3.36 10.38 3.36 9.47 3.36 8.62 3.49 7.83 3.74 7.04 3.99 6.37 4.32 5.81 4.74 5.26 5.16 4.79 5.64 4.39 6.18 4 6.72 3.71 7.28 3.52 7.87 3.34 8.45 3.24 9.03 3.24 9.61 3.24 10.51 3.42 11.31 3.76 11.99 4.11 12.68 4.62 13.16 5.29 13.44 5.55 13.54 5.71 13.45 5.78 13.18 5.8 13.12 5.83 12.98 5.89 12.77 5.94 12.56 5.97 12.44 5.99 12.38 6.04 12.18 5.99 12 5.85 11.82 5.4 11.29 5.18 10.64 5.18 9.86 5.18 8.55 5.64 7.42 6.54 6.48 7.45 5.54 8.64 5.07 10.1 5.07 11.41 5.07 12.44 5.42 13.17 6.13 13.9 6.84 14.27 7.77 14.27 8.91 14.27 10.38 13.97 11.64 13.38 12.67 12.78 13.7 12.02 14.22 11.09 14.22 10.56 14.22 10.14 14.03 9.82 13.65 9.5 13.28 9.4 12.82 9.52 12.29 9.59 11.99 9.7 11.58 9.86 11.07 10.02 10.57 10.15 10.12 10.25 9.73 10.35 9.35 10.4 9.02 10.4 8.75 10.4 8.32 10.29 7.96 10.05 7.67 9.82 7.38 9.48 7.24 9.05 7.24 8.51 7.24 8.06 7.49 7.68 7.98 7.31 8.48 7.12 9.09 7.12 9.83 7.12 10.47 7.23 10.99 7.45 11.42 7.45 11.42 6.16 16.86 6.16 16.86 6.01 17.47 5.96 18.24 5.99 19.17 4.2 18.38 2.76 17.16 1.65 15.51 0.55 13.86 0 12.02 0 10 0 8.19 0.45 6.51 1.34 4.98 2.24 3.45 3.45 2.24 4.98 1.34 6.51 0.45 8.19 0 10 0 11.81 0 13.49 0.45 15.02 1.34 16.55 2.24 17.76 3.45 18.66 4.98 19.55 6.51 20 8.19 20 10Z" fill="rgb(25,31,33)"/></svg>