<?xml version="1.0" encoding="utf-8"?>
<svg xmlns="http://www.w3.org/2000/svg"
	xmlns:xlink="http://www.w3.org/1999/xlink"
	width="34px" height="34px" viewBox="0 0 34 34">
<clipPath id="clip0"><circle cx="17.00" cy="17.00" r="17.00"/></clipPath><g><circle cx="17.00" cy="17.00" r="17.00" fill="rgb(75,83,85)"/><path fillRule="evenodd" d="M 18.48 23.46C 18.48 23.31 18.46 23.17 18.43 23.02 18.39 22.88 18.36 22.75 18.32 22.64 18.29 22.52 18.23 22.39 18.14 22.26 18.05 22.13 17.97 22.02 17.91 21.93 17.85 21.84 17.75 21.74 17.62 21.61 17.49 21.49 17.39 21.4 17.32 21.34 17.26 21.28 17.14 21.18 16.98 21.06 16.82 20.94 16.7 20.86 16.64 20.81 16.58 20.77 16.46 20.69 16.29 20.56 16.11 20.44 16 20.37 15.96 20.34 15.83 20.32 15.65 20.32 15.41 20.32 15.03 20.32 14.64 20.34 14.27 20.39 13.89 20.44 13.5 20.53 13.1 20.66 12.7 20.79 12.34 20.96 12.04 21.16 11.74 21.36 11.49 21.63 11.29 21.97 11.1 22.31 11 22.7 11 23.13 11 23.62 11.13 24.06 11.39 24.44 11.64 24.83 11.98 25.13 12.39 25.35 12.81 25.57 13.24 25.73 13.69 25.84 14.15 25.95 14.61 26.01 15.07 26.01 15.49 26.01 15.9 25.96 16.29 25.87 16.67 25.78 17.03 25.64 17.37 25.45 17.71 25.26 17.98 24.99 18.18 24.65 18.38 24.31 18.48 23.92 18.48 23.46ZM 17.18 14.14C 17.18 13.71 17.12 13.25 17 12.76 16.88 12.27 16.71 11.8 16.49 11.35 16.27 10.89 15.97 10.52 15.58 10.22 15.2 9.93 14.77 9.78 14.29 9.78 13.62 9.78 13.1 10.03 12.73 10.53 12.36 11.02 12.18 11.62 12.18 12.31 12.18 12.65 12.22 13.01 12.3 13.38 12.39 13.76 12.52 14.13 12.69 14.51 12.86 14.88 13.06 15.22 13.29 15.52 13.53 15.82 13.81 16.06 14.14 16.25 14.47 16.44 14.82 16.53 15.19 16.53 15.89 16.53 16.39 16.31 16.71 15.87 17.02 15.44 17.18 14.86 17.18 14.14ZM 15.76 9C 15.76 9 20.49 9 20.49 9 20.49 9 19.03 9.85 19.03 9.85 19.03 9.85 17.57 9.85 17.57 9.85 18.08 10.18 18.48 10.63 18.76 11.22 19.04 11.8 19.18 12.41 19.18 13.05 19.18 13.58 19.1 14.05 18.93 14.47 18.76 14.88 18.56 15.22 18.32 15.47 18.09 15.72 17.85 15.95 17.61 16.17 17.37 16.38 17.17 16.6 17 16.83 16.84 17.05 16.76 17.3 16.76 17.56 16.76 17.74 16.82 17.93 16.93 18.11 17.05 18.29 17.21 18.46 17.4 18.63 17.59 18.79 17.8 18.97 18.03 19.15 18.26 19.33 18.49 19.53 18.72 19.75 18.96 19.97 19.17 20.21 19.36 20.46 19.55 20.72 19.7 21.02 19.82 21.38 19.94 21.74 20 22.12 20 22.53 20 23.69 19.5 24.7 18.49 25.58 17.39 26.53 15.88 27 13.94 27 13.52 27 13.09 26.96 12.65 26.89 12.21 26.82 11.77 26.7 11.33 26.53 10.89 26.36 10.5 26.15 10.16 25.9 9.82 25.65 9.54 25.33 9.32 24.94 9.11 24.55 9 24.11 9 23.63 9 23.19 9.13 22.7 9.4 22.17 9.63 21.7 9.98 21.3 10.44 20.97 10.9 20.63 11.42 20.38 12.01 20.2 12.59 20.02 13.15 19.9 13.68 19.81 14.22 19.73 14.76 19.68 15.31 19.67 14.85 19.07 14.61 18.53 14.61 18.05 14.61 17.97 14.62 17.88 14.64 17.8 14.65 17.72 14.67 17.65 14.69 17.59 14.71 17.53 14.74 17.45 14.78 17.36 14.81 17.26 14.84 17.18 14.85 17.12 14.56 17.16 14.31 17.18 14.09 17.18 13.02 17.18 12.1 16.82 11.33 16.12 10.56 15.41 10.18 14.52 10.18 13.46 10.18 12.45 10.52 11.54 11.21 10.75 11.89 9.95 12.74 9.44 13.74 9.22 14.42 9.07 15.09 9 15.76 9ZM 28 12C 28 12 28 13 28 13 28 13 25 13 25 13 25 13 25 16 25 16 25 16 24 16 24 16 24 16 24 13 24 13 24 13 21 13 21 13 21 13 21 12 21 12 21 12 24 12 24 12 24 12 24 9 24 9 24 9 25 9 25 9 25 9 25 12 25 12 25 12 28 12 28 12Z" fill="rgb(25,31,33)" clip-path="url(#clip0)"/></g></svg>