<?xml version="1.0" encoding="utf-8"?>
<svg xmlns="http://www.w3.org/2000/svg"
	xmlns:xlink="http://www.w3.org/1999/xlink"
	width="15px" height="15px" viewBox="0 0 15 15">
<path fillRule="evenodd" d="M 11.43 15C 11.43 15 11.43 9.34 11.43 9.34 11.43 7.97 10.88 7.18 10.01 7.18 9.25 7.18 8.54 7.56 8.17 8.17 8.05 8.36 7.97 8.8 7.97 9.1 7.97 9.1 7.97 14.97 7.97 14.97 7.97 14.97 5 15 5 15 5 15 5 4 5 4 5 4 7.59 4.18 7.59 4.18 7.59 4.18 7.74 6.06 7.74 6.06 7.74 6.06 7.81 6.06 7.81 6.06 8.23 5.3 9.27 4.35 11.02 4.35 13.14 4.35 15.01 5.79 15.01 8.92 15.01 8.92 15.01 14.97 15.01 14.97 15.01 14.97 11.43 15 11.43 15ZM 0 4C 0 4 3 4 3 4 3 4 3 15 3 15 3 15 0 14.97 0 14.97 0 14.97 0 4 0 4ZM 1.71 3.3C 0.69 3.3 0.03 2.56 0.03 1.64 0.03 0.71 0.72-0.01 1.76-0.01 2.79-0.01 3.43 0.71 3.45 1.64 3.45 2.56 2.79 3.3 1.71 3.3Z" fill="rgb(25,31,33)"/></svg>